<svg width="150" height="150" viewBox="0 0 150 150" fill="none" xmlns="http://www.w3.org/2000/svg">
<path d="M75 0C55.1088 0 36.0322 7.90176 21.967 21.967C7.90176 36.0322 0 55.1088 0 75C0 94.8912 7.90176 113.968 21.967 128.033C36.0322 142.098 55.1088 150 75 150C84.8491 150 94.6018 148.06 103.701 144.291C112.801 140.522 121.069 134.997 128.033 128.033C134.997 121.069 140.522 112.801 144.291 103.701C148.06 94.6018 150 84.8491 150 75C150 65.1509 148.06 55.3982 144.291 46.2987C140.522 37.1993 134.997 28.9314 128.033 21.967C121.069 15.0026 112.801 9.47814 103.701 5.70903C94.6018 1.93993 84.8491 0 75 0ZM75 26.1702C101.934 26.1702 123.83 48.0661 123.83 75C123.83 101.934 101.934 123.83 75 123.83C48.0661 123.83 26.1702 101.934 26.1702 75C26.1702 48.0661 48.0661 26.1702 75 26.1702ZM75 31.9149C68.4839 31.9149 62.3116 33.3574 56.7798 35.9368C60.465 46.4304 66.7717 59.6809 75 59.6809C83.2414 59.6809 89.3381 46.3883 93.1123 35.8867C87.608 33.3389 81.4736 31.9149 75 31.9149ZM106.517 45.6C97.6717 52.3478 87.0032 62.4479 89.5474 70.2788C92.0946 78.1184 106.624 79.808 117.779 80.152C117.979 78.4624 118.085 76.7441 118.085 75C118.085 63.6249 113.695 53.294 106.517 45.6ZM43.4116 45.6776C36.2754 53.363 31.9149 63.6629 31.9149 75C31.9149 76.7713 32.0234 78.5164 32.2302 80.2309C43.3471 79.9676 57.8837 78.0629 60.4251 70.2415C62.97 62.4089 52.2294 52.5118 43.4116 45.6776ZM65.812 59.6062C65.2335 59.6225 64.6734 59.8131 64.2051 60.1532C63.589 60.601 63.1759 61.2752 63.0568 62.0275C62.9377 62.7798 63.1223 63.5487 63.57 64.1649C64.0177 64.7812 64.6918 65.1944 65.4441 65.3137C66.1964 65.433 66.9653 65.2485 67.5817 64.801C67.8869 64.5793 68.1455 64.2996 68.3426 63.978C68.5398 63.6564 68.6716 63.2991 68.7306 62.9265C68.7897 62.5539 68.7747 62.1733 68.6867 61.8065C68.5986 61.4397 68.4392 61.0938 68.2174 60.7886C67.9428 60.4108 67.5803 60.1057 67.1611 59.8996C66.742 59.6936 66.2789 59.5928 65.812 59.6062ZM84.188 59.6062C84.1202 59.6042 84.0524 59.6046 83.9847 59.6074C83.5524 59.6257 83.1298 59.7414 82.7485 59.9459C82.3672 60.1503 82.037 60.4383 81.7826 60.7883C81.5608 61.0935 81.4013 61.4394 81.3132 61.8062C81.2251 62.1731 81.2102 62.5537 81.2692 62.9263C81.3282 63.2989 81.4601 63.6563 81.6573 63.9779C81.8544 64.2996 82.113 64.5793 82.4183 64.801C83.0346 65.2486 83.8035 65.4331 84.5558 65.3138C85.3081 65.1946 85.9823 64.7814 86.43 64.1652C86.8777 63.549 87.0623 62.7802 86.9432 62.0278C86.8241 61.2755 86.411 60.6013 85.7949 60.1535C85.3266 59.8133 84.7665 59.6226 84.188 59.6062ZM75 64.7872C72.2914 64.7872 69.6937 65.8632 67.7785 67.7785C65.8632 69.6937 64.7872 72.2914 64.7872 75C64.7872 77.7086 65.8632 80.3062 67.7785 82.2215C69.6937 84.1368 72.2914 85.2128 75 85.2128C77.7086 85.2128 80.3062 84.1368 82.2215 82.2215C84.1368 80.3062 85.2128 77.7086 85.2128 75C85.2128 72.2914 84.1368 69.6937 82.2215 67.7785C80.3062 65.8632 77.7086 64.7872 75 64.7872ZM60.2244 76.9267C59.9368 76.9309 59.6515 76.9782 59.378 77.0671C59.0192 77.1836 58.6868 77.3697 58.4 77.6146C58.1131 77.8596 57.8772 78.1587 57.7059 78.4948C57.5346 78.8309 57.4312 79.1974 57.4016 79.5735C57.372 79.9496 57.4167 80.3278 57.5333 80.6866C57.7687 81.411 58.2823 82.0123 58.961 82.3581C59.6397 82.7039 60.428 82.766 61.1524 82.5306C61.5112 82.4141 61.8435 82.2281 62.1304 81.9832C62.4172 81.7382 62.6531 81.4392 62.8243 81.1031C62.9956 80.767 63.0991 80.4005 63.1287 80.0245C63.1584 79.6484 63.1136 79.2702 62.9971 78.9115C62.8076 78.3279 62.4361 77.8203 61.9371 77.4631C61.4382 77.1059 60.8379 76.918 60.2244 76.9267ZM89.8593 76.9293C89.232 76.902 88.613 77.081 88.0972 77.439C87.5813 77.7969 87.1969 78.314 87.0029 78.9112C86.8864 79.2699 86.8416 79.6481 86.8713 80.0242C86.9009 80.4002 87.0043 80.7667 87.1756 81.1028C87.3469 81.4389 87.5828 81.7379 87.8696 81.9828C88.1565 82.2278 88.4888 82.4138 88.8476 82.5303C89.572 82.7657 90.3602 82.7037 91.0389 82.3579C91.7176 82.0122 92.2312 81.411 92.4667 80.6866C92.5833 80.3278 92.628 79.9496 92.5984 79.5735C92.5688 79.1974 92.4654 78.8309 92.2941 78.4948C92.1228 78.1587 91.8869 77.8596 91.6 77.6146C91.3132 77.3697 90.9808 77.1836 90.622 77.0671C90.3752 76.9869 90.1186 76.9405 89.8593 76.9293ZM60.4519 85.7738C53.5615 85.807 44.4179 91.1457 37.3379 95.9636C43.411 106.868 54.0804 114.846 66.7452 117.295C69.9335 106.638 72.6239 92.2037 65.9646 87.3657C64.4154 86.2401 62.5379 85.7636 60.4519 85.7738ZM89.4996 85.7802C87.3996 85.7802 85.5128 86.264 83.9636 87.3894C77.295 92.2344 80.1775 106.572 83.2972 117.287C95.9633 114.824 106.63 106.831 112.691 95.9122C105.668 91.0535 96.435 85.7802 89.4996 85.7799V85.7802ZM75 87.6319C74.2382 87.6319 73.5076 87.9345 72.9689 88.4732C72.4303 89.0119 72.1277 89.7425 72.1277 90.5042C72.1277 91.266 72.4303 91.9966 72.9689 92.5353C73.5076 93.074 74.2382 93.3766 75 93.3766C75.7618 93.3766 76.4924 93.074 77.031 92.5353C77.5697 91.9966 77.8723 91.266 77.8723 90.5042C77.8723 89.7425 77.5697 89.0119 77.031 88.4732C76.4924 87.9345 75.7618 87.6319 75 87.6319Z" fill="black"/>
</svg>
